HIERARCHY
ROOT Hips
{
	OFFSET -0.001795 -0.223333 0.028219
	CHANNELS 6 Xposition Yposition Zposition Zrotation Yrotation Xrotation 
	JOINT LeftUpLeg
	{
		OFFSET 0.069520 -0.091406 -0.006815
		CHANNELS 3 Zrotation Yrotation Xrotation
		JOINT LeftLeg
		{
			OFFSET 0.034277 -0.375199 -0.004496
			CHANNELS 3 Zrotation Yrotation Xrotation
			JOINT LeftFoot
			{
				OFFSET -0.013596 -0.397961 -0.043693
				CHANNELS 3 Zrotation Yrotation Xrotation
				JOINT LeftToe
				{
					OFFSET 0.026358 -0.055791 0.119288
					CHANNELS 3 Zrotation Yrotation Xrotation
					End Site
					{
						OFFSET 0.000000 0.000000 0.000000
					}
				}
			}
		}
	}
	JOINT RightUpLeg
	{
		OFFSET -0.067670 -0.090522 -0.004320
		CHANNELS 3 Zrotation Yrotation Xrotation
		JOINT RightLeg
		{
			OFFSET -0.038290 -0.382569 -0.008850
			CHANNELS 3 Zrotation Yrotation Xrotation
			JOINT RightFoot
			{
				OFFSET 0.015774 -0.398415 -0.042312
				CHANNELS 3 Zrotation Yrotation Xrotation
				JOINT RightToe
				{
					OFFSET -0.025372 -0.048144 0.123348
					CHANNELS 3 Zrotation Yrotation Xrotation
					End Site
					{
						OFFSET 0.000000 0.000000 0.000000
					}
				}
			}
		}
	}
	JOINT Spine
	{
		OFFSET -0.002533 0.108963 -0.026696
		CHANNELS 3 Zrotation Yrotation Xrotation
		JOINT Spine1
		{
			OFFSET 0.005487 0.135180 0.001092
			CHANNELS 3 Zrotation Yrotation Xrotation
			JOINT Spine2
			{
				OFFSET 0.001457 0.052922 0.025425
				CHANNELS 3 Zrotation Yrotation Xrotation
				JOINT Neck
				{
					OFFSET -0.002778 0.213870 -0.042857
					CHANNELS 3 Zrotation Yrotation Xrotation
					JOINT Head
					{
						OFFSET 0.005152 0.064970 0.051349
						CHANNELS 3 Zrotation Yrotation Xrotation
						End Site
						{
							OFFSET 0.000000 0.000000 0.000000
						}
					}
				}
				JOINT LeftShoulder
				{
					OFFSET 0.078845 0.121749 -0.034090
					CHANNELS 3 Zrotation Yrotation Xrotation
					JOINT LeftArm
					{
						OFFSET 0.090977 0.030469 -0.008868
						CHANNELS 3 Zrotation Yrotation Xrotation
						JOINT LeftForeArm
						{
							OFFSET 0.259612 -0.012772 -0.027456
							CHANNELS 3 Zrotation Yrotation Xrotation
							JOINT LeftHand
							{
								OFFSET 0.249234 0.008986 -0.001171
								CHANNELS 3 Zrotation Yrotation Xrotation
								End Site
								{
									OFFSET 0.000000 0.000000 0.000000
								}
							}
						}
					}
				}
				JOINT RightShoulder
				{
					OFFSET -0.081759 0.118833 -0.038615
					CHANNELS 3 Zrotation Yrotation Xrotation
					JOINT RightArm
					{
						OFFSET -0.096012 0.032551 -0.009143
						CHANNELS 3 Zrotation Yrotation Xrotation
						JOINT RightForeArm
						{
							OFFSET -0.253742 -0.013329 -0.021401
							CHANNELS 3 Zrotation Yrotation Xrotation
							JOINT RightHand
							{
								OFFSET -0.255298 0.007772 -0.005559
								CHANNELS 3 Zrotation Yrotation Xrotation
								End Site
								{
									OFFSET 0.000000 0.000000 0.000000
								}
							}
						}
					}
				}
			}
		}
	}
}
MOTION
Frames: 8
Frame Time: 0.050000
0.000000 0.841903 0.000000 -1.282066 -23.700628 8.249033 3.684418 2.448766 -46.985135 -3.148444 3.421539 38.291738 11.094057 21.234165 1.521973 0.000000 0.000000 0.000000 -2.067158 4.366316 -30.240467 20.790189 -2.895377 63.431346 -16.739500 -39.699182 -0.477995 0.000000 0.000000 0.000000 -8.230869 6.143959 42.727495 3.373008 -0.847141 -20.065682 0.865230 4.213028 28.774856 -4.882358 3.543262 -24.656873 0.000000 0.000000 0.000000 -32.942385 -19.645567 14.947925 -48.513340 -33.287165 4.495103 22.215106 -33.142617 -3.951478 0.000000 0.000000 0.000000 27.643737 25.625459 12.720371 46.618962 21.095274 1.674318 -8.581974 42.994734 -1.539095 0.000000 0.000000 0.000000 
-0.007272 0.841660 0.030403 -3.264498 -24.179024 8.480260 5.179886 3.160717 -45.797222 -1.172357 2.828143 40.459956 9.174017 17.639156 1.386008 0.000000 0.000000 0.000000 -2.739740 5.317311 -34.695688 24.293687 -5.144655 60.089748 -15.350283 -38.033224 -2.474088 0.000000 0.000000 0.000000 -7.352110 6.192818 44.512185 4.149489 -1.190649 -18.160743 1.091695 2.578776 26.739042 -7.318063 4.736079 -24.947143 0.000000 0.000000 0.000000 -35.602408 -16.468096 13.902900 -45.829456 -32.279972 3.341070 22.957259 -35.309520 -4.352888 0.000000 0.000000 0.000000 27.666114 26.107647 12.270925 45.203719 19.845017 1.537809 -5.599576 44.500270 -0.718819 0.000000 0.000000 0.000000 
-0.014527 0.847693 0.058970 -3.905727 -22.761249 8.036189 4.585372 1.996767 -42.295271 0.079255 1.968981 39.206270 10.174899 20.343117 -2.267156 0.000000 0.000000 0.000000 -3.430767 5.612540 -37.388784 24.181811 -5.642333 56.153945 -13.983912 -35.043905 -1.790316 0.000000 0.000000 0.000000 -5.797909 5.642404 47.267735 3.251020 -0.994314 -17.238679 1.961467 1.473154 23.933170 -9.051169 5.893092 -22.639580 0.000000 0.000000 0.000000 -37.014979 -16.694396 14.115870 -48.232694 -31.315185 3.703978 22.731717 -31.709568 -3.874100 0.000000 0.000000 0.000000 26.180150 24.470896 10.988280 47.712222 18.477192 1.367360 -2.256083 44.155897 0.534274 0.000000 0.000000 0.000000 
-0.021463 0.854219 0.084442 -4.274478 -23.436748 7.331243 5.419151 2.176910 -39.963855 -0.404743 2.468023 39.399470 9.583616 19.430896 -3.955850 0.000000 0.000000 0.000000 -0.337320 7.409313 -40.490766 19.446701 -2.914343 52.284536 -12.959129 -32.969473 -2.913346 0.000000 0.000000 0.000000 -5.299130 5.868695 48.972373 3.376736 -1.092466 -16.742899 1.136834 1.040105 22.787810 -9.053095 6.084414 -19.833397 0.000000 0.000000 0.000000 -38.251235 -17.179739 14.792336 -50.105181 -31.509523 4.141075 24.584563 -30.767692 -4.152123 0.000000 0.000000 0.000000 28.425271 25.072857 11.486722 46.940790 16.163613 0.664242 -0.964352 45.128592 1.008878 0.000000 0.000000 0.000000 
-0.028583 0.858675 0.106661 -4.322049 -22.741659 7.222149 5.097966 1.752731 -38.543800 0.867217 1.815010 39.701271 9.450359 19.301757 -4.347173 0.000000 0.000000 0.000000 0.708519 8.181047 -42.170890 14.474612 -0.827985 47.057429 -9.555307 -24.680702 -1.275445 0.000000 0.000000 0.000000 -3.839628 5.175843 50.207889 1.795229 -0.651334 -16.499771 1.238783 -0.028347 21.225690 -8.148708 5.525656 -17.722053 0.000000 0.000000 0.000000 -37.206515 -17.640079 15.057389 -52.561496 -31.492585 4.841916 25.608157 -30.675091 -4.386351 0.000000 0.000000 0.000000 29.678603 24.662513 10.977020 47.647791 14.602463 0.405633 -0.040137 44.193783 1.249510 0.000000 0.000000 0.000000 
-0.035565 0.861074 0.125998 -4.092139 -21.544977 7.327561 5.193393 1.440680 -37.515226 0.776316 1.605409 38.824562 9.404015 19.547113 -5.506316 0.000000 0.000000 0.000000 -0.123119 7.871872 -42.764418 11.925140 -0.199182 42.725538 -7.647355 -19.968215 -0.776733 0.000000 0.000000 0.000000 -3.066331 4.555332 50.729451 1.926069 -0.628167 -17.416780 0.760018 -0.076153 21.849081 -8.819764 5.894478 -19.668530 0.000000 0.000000 0.000000 -38.155581 -17.933464 15.324948 -53.520457 -30.860449 4.657713 26.526100 -31.878490 -4.767918 0.000000 0.000000 0.000000 28.796435 24.718737 11.165206 48.299931 14.655088 0.270978 0.079659 44.592512 1.370570 0.000000 0.000000 0.000000 
-0.042914 0.862829 0.143186 -3.414953 -19.365688 7.118703 4.471011 0.771810 -37.028626 0.638751 1.340888 38.736058 9.521866 19.963543 -6.193679 0.000000 0.000000 0.000000 -0.612330 7.344072 -42.670878 10.970517 -0.231301 41.629617 -7.551613 -19.764211 -0.063595 0.000000 0.000000 0.000000 -2.066324 3.539732 50.991903 2.113322 -0.600579 -18.079688 -0.189688 0.134445 22.347407 -7.966261 5.484275 -19.547086 0.000000 0.000000 0.000000 -37.503665 -18.409059 15.106108 -54.833391 -30.887033 5.054907 27.232376 -34.480768 -5.411541 0.000000 0.000000 0.000000 28.038621 24.920272 11.639652 48.770282 16.506460 0.813842 -0.671497 42.838199 1.144294 0.000000 0.000000 0.000000 
-0.050731 0.862113 0.158149 -2.863519 -17.702664 6.557793 4.268109 0.417387 -36.855038 -0.432084 1.750011 40.136474 9.396212 19.805165 -7.463830 0.000000 0.000000 0.000000 -1.080996 6.747724 -41.978159 10.262901 -0.162686 42.114272 -7.085221 -18.504187 -0.105600 0.000000 0.000000 0.000000 -1.304317 2.810786 51.819116 1.238030 -0.325191 -18.205347 -0.355428 -0.277875 21.473853 -8.751658 6.286285 -16.256485 0.000000 0.000000 0.000000 -37.991853 -18.735733 15.195475 -53.973222 -30.359458 4.752096 27.477108 -36.558314 -5.965802 0.000000 0.000000 0.000000 28.888765 25.461917 12.261261 47.076323 16.373205 0.750583 0.325081 43.273039 1.541881 0.000000 0.000000 0.000000 
